<svg xmlns="http://www.w3.org/2000/svg" viewBox="0 0 605.33 380.31"><defs><style>.cls-1{fill:#7cd3cb;}.cls-2{fill:#348623;}.cls-3{fill:#7dd028;}</style></defs><title>Asset 2</title><g id="Layer_2" data-name="Layer 2"><g id="Layer_1-2" data-name="Layer 1"><polygon class="cls-1" points="91.94 2.09 110.07 2.09 110.07 10.05 137.57 37.76 137.57 2.09 155.7 2.09 155.7 81.03 137.57 81.03 137.57 65.84 110.07 38.13 110.07 81.03 91.94 81.03 91.94 2.09"/><polygon class="cls-1" points="166.33 2.09 230.09 2.09 230.09 20.21 184.46 20.21 184.46 32.52 214.89 32.52 214.89 50.6 185.19 50.6 185.09 62.91 230.09 62.91 230.09 81.03 166.33 81.03 166.33 2.09"/><path class="cls-1" d="M41.56,0A41.56,41.56,0,1,0,83.12,41.56,41.56,41.56,0,0,0,41.56,0m0,17.16a24.4,24.4,0,1,1-24.4,24.4,24.43,24.43,0,0,1,24.4-24.4"/><polygon class="cls-2" points="5.33 98.37 23.45 98.37 23.45 159.3 35.77 159.3 35.77 98.37 53.94 98.37 53.94 159.3 66.25 159.3 66.25 98.37 84.38 98.37 84.38 177.42 5.33 177.42 5.33 98.37"/><path class="cls-2" d="M198.06,128.81h27.5V116.5h-27.5ZM179.93,98.37h63.76v48.51H224.15l19.54,19.59v10.85H225.56l-27.5-27.71v27.71H179.93Z"/><polygon class="cls-2" points="254.32 98.37 272.45 98.37 272.45 159.3 318.13 159.3 318.13 177.42 254.32 177.42 254.32 98.37"/><path class="cls-2" d="M346.94,159.19h27.5V116.5h-27.5ZM328.82,98.37h49.24l14.51,14.51v49.93l-14.51,14.51H328.82Z"/><path class="cls-2" d="M132.16,96.34a41.56,41.56,0,1,0,41.56,41.56,41.55,41.55,0,0,0-41.56-41.56m0,17.16a24.4,24.4,0,1,1-24.41,24.4,24.43,24.43,0,0,1,24.41-24.4"/><path class="cls-3" d="M491.35,191.84a41.56,41.56,0,1,0,41.56,41.56,41.55,41.55,0,0,0-41.56-41.56m0,17.15a24.41,24.41,0,1,1-24.41,24.41A24.44,24.44,0,0,1,491.35,209"/><polygon class="cls-3" points="4.81 194.35 16.6 194.35 36.87 214.41 56.98 194.35 68.56 194.35 68.56 273.29 50.44 273.29 50.44 231.28 38.86 242.85 34.51 242.85 22.93 231.28 22.93 273.29 4.81 273.29 4.81 194.35"/><path class="cls-3" d="M97.42,240h27.5v-27.5H97.42ZM79.3,194.35h63.75v78.94H124.92V258.1H97.42v15.19H79.3Z"/><path class="cls-3" d="M171.86,224.78h27.5V212.47h-27.5Zm-18.12-30.43h63.75v48.51H198l19.54,19.59v10.84H199.36l-27.5-27.71v27.71H153.74Z"/><path class="cls-3" d="M246.25,240h27.5v-27.5h-27.5Zm-18.13-45.62h63.75v78.94H273.75V258.1h-27.5v15.19H228.12Z"/><polygon class="cls-3" points="302.45 194.35 366.2 194.35 366.2 212.47 343.73 212.47 343.73 273.29 325.66 273.29 325.66 212.47 302.45 212.47 302.45 194.35"/><polygon class="cls-3" points="376.94 193.82 395.17 193.82 395.17 224.47 422.88 224.47 422.88 193.82 441.11 193.82 441.11 273.29 422.88 273.29 422.88 242.65 395.17 242.65 395.17 273.29 376.94 273.29 376.94 193.82"/><polygon class="cls-3" points="587.21 194.35 587.21 230.02 559.71 202.31 559.71 194.35 541.58 194.35 541.58 273.29 559.71 273.29 559.71 230.39 587.21 258.1 587.21 273.29 605.33 273.29 605.33 194.35 587.21 194.35"/><polygon points="91.42 337.58 100.97 337.58 100.97 369.68 107.46 369.68 107.46 337.58 117.04 337.58 117.04 369.68 123.52 369.68 123.52 337.58 133.08 337.58 133.08 379.24 91.42 379.24 91.42 337.58"/><path d="M63.88,336.5a21.91,21.91,0,1,0,21.9,21.91,21.91,21.91,0,0,0-21.9-21.91m0,9.05A12.86,12.86,0,1,1,51,358.41a12.88,12.88,0,0,1,12.86-12.86"/><polygon points="140.19 337.61 146.4 337.61 157.08 348.18 167.68 337.61 173.78 337.61 173.78 379.21 164.23 379.21 164.23 357.07 158.13 363.17 155.84 363.17 149.74 357.07 149.74 379.21 140.19 379.21 140.19 337.61"/><path d="M22.39,362.35l1.2-7.08H16.65l-1.2,7.08Zm-14.3,6.12H4.45v-6.12H9.14l1.19-7.08H6.12v-6.12h5.27l1.19-7H18.9l-1.2,7h6.94l1.19-7h6.32l-1.2,7h3.64v6.12H29.9l-1.19,7.08h4.21v6.12H27.65l-1.24,7.18H20.09l1.25-7.18H14.4l-1.24,7.18H6.84Z"/></g></g></svg>