<svg xmlns="http://www.w3.org/2000/svg" viewBox="0 0 887.2 375.39"><defs><style>.cls-1{fill:#81c9c5;}.cls-2{fill:#82bb32;}.cls-3{fill:#348635;}</style></defs><title>Asset 1</title><g id="Layer_2" data-name="Layer 2"><g id="Layer_1-2" data-name="Layer 1"><path class="cls-1" d="M313.39,62a177.59,177.59,0,0,1,43.27,116.33c0,98.33-80,178.33-178.33,178.33A177.54,177.54,0,0,1,62,313.38a178,178,0,0,0,135.06,62c98.33,0,178.33-80,178.33-178.33A178,178,0,0,0,313.39,62"/><path class="cls-2" d="M197.06,18.73A177.59,177.59,0,0,1,313.39,62,178,178,0,0,0,178.33,0C80,0,0,80,0,178.33a178,178,0,0,0,62,135A177.56,177.56,0,0,1,18.73,197.06c0-98.34,80-178.33,178.33-178.33"/><path class="cls-3" d="M56.18,178.33a122.09,122.09,0,0,1,217.33-76.45A122.09,122.09,0,1,1,101.88,273.5a122,122,0,0,1-45.7-95.17m300.48,0A177.59,177.59,0,0,0,313.39,62,177.6,177.6,0,0,0,197.06,18.72c-98.33,0-178.33,80-178.33,178.34A177.51,177.51,0,0,0,62,313.38a177.54,177.54,0,0,0,116.33,43.28c98.34,0,178.33-80,178.33-178.33"/><path class="cls-2" d="M197.06,319.21a122.09,122.09,0,0,0,76.45-217.33A122.06,122.06,0,0,1,101.88,273.5a122,122,0,0,0,95.18,45.71"/><path class="cls-1" d="M197.06,74.9a121.54,121.54,0,0,1,76.45,27A122.09,122.09,0,1,0,101.88,273.5,122.07,122.07,0,0,1,197.06,74.9"/><polygon points="498.22 76.72 512.53 76.72 512.53 83.01 534.24 104.89 534.24 76.72 548.55 76.72 548.55 139.04 534.24 139.04 534.24 127.05 512.53 105.17 512.53 139.04 498.22 139.04 498.22 76.72"/><polygon points="677.58 230.99 691.89 230.99 691.89 237.27 713.6 259.15 713.6 230.99 727.91 230.99 727.91 293.31 713.6 293.31 713.6 281.32 691.89 259.44 691.89 293.31 677.58 293.31 677.58 230.99"/><polygon points="556.94 76.72 607.27 76.72 607.27 91.03 571.25 91.03 571.25 100.75 595.28 100.75 595.28 115.02 571.83 115.02 571.75 124.73 607.27 124.73 607.27 139.04 556.94 139.04 556.94 76.72"/><polygon points="429.85 152.73 444.16 152.73 444.16 200.82 453.88 200.82 453.88 152.73 468.23 152.73 468.23 200.82 477.94 200.82 477.94 152.73 492.25 152.73 492.25 215.13 429.85 215.13 429.85 152.73"/><path d="M582,176.75H603.7V167H582Zm-14.31-24H618V191H602.58L618,206.49v8.56H603.7L582,193.17v21.88H567.68Z"/><polygon points="626.4 152.73 640.71 152.73 640.71 200.82 676.77 200.82 676.77 215.13 626.4 215.13 626.4 152.73"/><path d="M699.51,200.74h21.71V167H699.51Zm-14.31-48h38.88l11.45,11.45v39.41l-11.45,11.46H685.2Z"/><polygon points="429.85 230.99 480.09 230.99 480.18 245.3 444.16 245.3 444.16 255.02 480.18 255.02 480.18 293.31 429.85 293.31 429.85 279 465.87 279.04 465.87 269.28 429.85 269.28 429.85 230.99"/><polygon points="488.37 230.99 538.69 230.99 538.69 245.3 520.95 245.3 520.95 293.31 506.69 293.31 506.69 245.3 488.37 245.3 488.37 230.99"/><path d="M561.44,255h21.71V245.3H561.44Zm-14.31-24h50.33v38.29H582l15.43,15.47v8.56H583.15l-21.71-21.88v21.88H547.13Z"/><polygon points="736.24 230.99 786.57 230.99 786.57 245.3 750.55 245.3 750.55 279 772.26 279 772.26 255.02 786.57 255.02 786.57 293.31 736.24 293.31 736.24 230.99"/><path d="M458.45,75.07a32.81,32.81,0,1,0,32.81,32.81,32.8,32.8,0,0,0-32.81-32.81m0,13.55a19.26,19.26,0,1,1-19.26,19.26,19.28,19.28,0,0,1,19.26-19.26"/><path d="M530,151.12a32.81,32.81,0,1,0,32.8,32.81A32.81,32.81,0,0,0,530,151.12m0,13.55a19.26,19.26,0,1,1-19.27,19.26A19.28,19.28,0,0,1,530,164.67"/><path d="M637.57,229.34a32.81,32.81,0,1,0,32.81,32.81,32.81,32.81,0,0,0-32.81-32.81m0,13.55a19.26,19.26,0,1,1-19.26,19.26,19.28,19.28,0,0,1,19.26-19.26"/><polygon points="848.2 272.03 844.38 275.87 840.56 272.03 832.19 272.03 832.19 280.41 844.53 293.31 856.58 280.64 856.58 272.03 848.2 272.03"/><polygon points="817.22 272.03 813.4 275.87 809.58 272.03 801.21 272.03 801.21 280.41 813.55 293.31 825.59 280.64 825.59 272.03 817.22 272.03"/><polygon points="878.83 272.03 875.01 275.87 871.19 272.03 862.81 272.03 862.81 280.42 875.15 293.31 887.2 280.63 887.2 272.03 878.83 272.03"/><path d="M804.41,233.5h-2.84v-1.61H809v1.61h-2.84v7.59h-1.76Zm6.57-1.61h1.88l2.79,4.36,2.77-4.36h1.83v9.2h-1.71v-6.54L815.7,239h-.17l-2.85-4.42v6.54H811Z"/></g></g></svg>